<svg width="40" height="40" viewBox="0 0 40 40" fill="none" xmlns="http://www.w3.org/2000/svg">
    <circle cx="20" cy="20" r="18.5" fill="#fff" stroke="#F6F7F9" stroke-width="3"/>
    <mask id="53autej2fa" style="mask-type:alpha" maskUnits="userSpaceOnUse" x="13" y="8" width="14" height="24">
        <path fill-rule="evenodd" clip-rule="evenodd" d="m13.934 8 12.303.497-.934 23.102L13 31.102 13.934 8z" fill="#fff"/>
    </mask>
    <g mask="url(#53autej2fa)">
        <path fill-rule="evenodd" clip-rule="evenodd" d="M15.557 22.06c-.007.429.196 1.57 1.588 2.702.58.472.846.685.923.743v.003c.038.03-.213.013-.283.017-.113.006-.494-.044-.803 0-.278.04-.244.108-.279.307-.028.158-.018.41-.034.625-.018.214-.035.366.051.473.085.106.141.124.521.116.362-.008 1.361.032 1.483.013.155-.026.128.03.032.217-.166.322-.724 1.805-1.556 3.203-.116.196.192.114.448.25.46.246.443.309.576.077.144-.252.888-1.824 1.013-2.314.016-.064.046-.118.053-.021.004.07-.068 2.091-.15 2.726a.118.118 0 0 0 .025.095.259.259 0 0 0 .127.064c.237-.068.523-.114.761-.065a.352.352 0 0 0 .062-.01.139.139 0 0 0 .034-.038.416.416 0 0 0 .042-.108l.002-.01a1.48 1.48 0 0 0 .045-.258 5.298 5.298 0 0 0 .02-.278l.01-.176.006-.197c.002-.072-.001-.048 0-.12v-.23c0-.08 0-.161-.002-.242a17.745 17.745 0 0 0-.03-.775 13.05 13.05 0 0 0-.076-.789c-.011-.084-.025-.12-.039-.204a7.696 7.696 0 0 0-.095-.475 4.75 4.75 0 0 0-.048-.182.58.58 0 0 1-.014-.103c.008-.029.044-.006.085-.012l.03-.004c.258-.024.704.017.805.025.099.007.605.076.748.095.141.02.313.06.323-.373a11.052 11.052 0 0 1 .011-.335l.005-.08.002-.046.002-.043.002-.039.005-.066.002-.019c0-.015.002-.03.003-.043l.002-.02c0-.012.002-.021.003-.03v-.01a.617.617 0 0 0 .005-.042c.007-.106.002-.3-.196-.359-.227-.067-.63-.097-.995-.08-.05.003-.062-.002-.045-.016v-.003c.08-.053.617-.322 1.238-.835.684-.566 1.011-.868 1.23-1.29 0 0 .78-1.373.791-2.562.002-.24.04-.219.189-.208.045.003.216-.003.31-.06.309-.057.622-1.094.622-1.094s.524-1.571.662-2.217c.123-.575.113-.913-.233-1.1l-.057-.035a.067.067 0 0 1-.029-.077.782.782 0 0 0 .02-.075c.197-.592.536-1.338.479-1.649-.009-.088-.082-.12-.108-.139a.871.871 0 0 1-.199-.293.195.195 0 0 1-.007-.048c-.051-1.136-.396-2.572-1.541-3.856l-.127-.126a5.547 5.547 0 0 0-.371-.336 6.22 6.22 0 0 0-1.07-.727 5.777 5.777 0 0 0-1-.383 4.18 4.18 0 0 0-.531-.13 5.435 5.435 0 0 0-1.167-.107H19.585c-.088 0-.204.009-.326.021-.197.02-.408.051-.538.077-.146.029-.343.062-.59.122-.101.025-.203.052-.305.08-.028.009-.057.016-.085.024-.11.032-.22.064-.331.1-.081.024-.426.157-.501.188a2.881 2.881 0 0 1-.14.054c-.241.066-.297.202-.309.278a.453.453 0 0 1-.043.14c-.374.719-1.187.757-1.509.76-.084.001-.159.01-.135.093.06.213.423.62.651.702-.004.033-.201.068-.243.077-.094.02-.476-.029-.495-.026h-.005c-.436.02-.582.31-.627.45a.158.158 0 0 0 .015.13c.09.15.186.273.254.47l.003.006c.017.052.033.11.046.173.006.083.069.172-.021.331-.16.282-.535.357-.602.641-.096.404.034.676.16 1.354.087.466.182.947.255 1.167a.019.019 0 0 1-.016.024c-.033.005-.09.015-.109.02-.218.078-.293.244-.33.575-.084.73.41 1.882.539 2.858.043.329.172.858.414 1.083a.615.615 0 0 0 .25.105c.193.042.283-.079.287.118 0 .041.01.152.009.214.005.697.35 1.402.35 1.402" fill="#fff"/>
    </g>
    <mask id="6jwtjs65hb" style="mask-type:alpha" maskUnits="userSpaceOnUse" x="13" y="8" width="14" height="24">
        <path fill-rule="evenodd" clip-rule="evenodd" d="m13.934 8 12.303.497-.934 23.102L13 31.102 13.934 8z" fill="#fff"/>
    </mask>
    <g mask="url(#6jwtjs65hb)">
        <path fill-rule="evenodd" clip-rule="evenodd" d="M15.557 22.06c-.007.429.196 1.57 1.588 2.702.58.472.846.685.923.743v.003c.038.03-.213.013-.283.017-.113.006-.494-.044-.803 0-.278.04-.244.108-.279.307-.028.158-.018.41-.034.625-.018.214-.035.366.051.473.085.106.141.124.521.116.362-.008 1.361.032 1.483.013.155-.026.128.03.032.217-.166.322-.724 1.805-1.556 3.203-.116.196.192.114.448.25.46.246.443.309.576.077.144-.252.888-1.824 1.013-2.314.016-.064.046-.118.053-.021.004.07-.068 2.091-.15 2.726a.118.118 0 0 0 .025.095.259.259 0 0 0 .127.064c.237-.068.523-.114.761-.065a.352.352 0 0 0 .062-.01.139.139 0 0 0 .034-.038.416.416 0 0 0 .042-.108l.002-.01a1.48 1.48 0 0 0 .045-.258 5.298 5.298 0 0 0 .02-.278l.01-.176.006-.197c.002-.072-.001-.048 0-.12v-.23c0-.08 0-.161-.002-.242a17.745 17.745 0 0 0-.03-.775 13.05 13.05 0 0 0-.076-.789c-.011-.084-.025-.12-.039-.204a7.696 7.696 0 0 0-.095-.475 4.75 4.75 0 0 0-.048-.182.58.58 0 0 1-.014-.103c.008-.029.044-.006.085-.012l.03-.004c.258-.024.704.017.805.025.099.007.605.076.748.095.141.02.313.06.323-.373a11.052 11.052 0 0 1 .011-.335l.005-.08.002-.046.002-.043.002-.039.005-.066.002-.019c0-.015.002-.03.003-.043l.002-.02c0-.012.002-.021.003-.03v-.01a.617.617 0 0 0 .005-.042c.007-.106.002-.3-.196-.359-.227-.067-.63-.097-.995-.08-.05.003-.062-.002-.045-.016v-.003c.08-.053.617-.322 1.238-.835.684-.566 1.011-.868 1.23-1.29 0 0 .78-1.373.791-2.562.002-.24.04-.219.189-.208.045.003.216-.003.31-.06.309-.057.622-1.094.622-1.094s.524-1.571.662-2.217c.123-.575.113-.913-.233-1.1l-.057-.035a.067.067 0 0 1-.029-.077.782.782 0 0 0 .02-.075c.197-.592.536-1.338.479-1.649-.009-.088-.082-.12-.108-.139a.871.871 0 0 1-.199-.293.195.195 0 0 1-.007-.048c-.051-1.136-.396-2.572-1.541-3.856l-.127-.126a5.547 5.547 0 0 0-.371-.336 6.22 6.22 0 0 0-1.07-.727 5.777 5.777 0 0 0-1-.383 4.18 4.18 0 0 0-.531-.13 5.435 5.435 0 0 0-1.167-.107H19.585c-.088 0-.204.009-.326.021-.197.02-.408.051-.538.077-.146.029-.343.062-.59.122-.101.025-.203.052-.305.08-.028.009-.057.016-.085.024-.11.032-.22.064-.331.1-.081.024-.426.157-.501.188a2.881 2.881 0 0 1-.14.054c-.241.066-.297.202-.309.278a.453.453 0 0 1-.043.14c-.374.719-1.187.757-1.509.76-.084.001-.159.01-.135.093.06.213.423.62.651.702-.004.033-.201.068-.243.077-.094.02-.476-.029-.495-.026h-.005c-.436.02-.582.31-.627.45a.158.158 0 0 0 .015.13c.09.15.186.273.254.47l.003.006c.017.052.033.11.046.173.006.083.069.172-.021.331-.16.282-.535.357-.602.641-.096.404.034.676.16 1.354.087.466.182.947.255 1.167a.019.019 0 0 1-.016.024c-.033.005-.09.015-.109.02-.218.078-.293.244-.33.575-.084.73.41 1.882.539 2.858.043.329.172.858.414 1.083a.615.615 0 0 0 .25.105c.193.042.283-.079.287.118 0 .041.01.152.009.214.005.697.35 1.402.35 1.402m.807-11.626c.045-.064.152-.156.259-.227.11-.073.659-.45 1.16-.581.092-.024.116-.037.175-.048.075-.017.145-.174-.01-.204-.16-.03-.226-.022-.313-.022-.086-.002-.126-.05-.06-.115.066-.066.183-.131.388-.204.447-.158 1.23-.22 1.596-.238.476-.022.533-.018.841.019.288.033.513.096.62.12.54.12 1.157.398 1.703.727.287.187.562.393.817.61.774.655 1.643 1.88 1.408 4.373-.027.295-.069.457-.091.528-.023.071-.123.19-.167.025-.144-.541-.318-1.493-.771-2.256-.064-.107-.168-.102-.162.008.002.046.005.524-.01.616-.103.61.094.379.344 1.049.078.207.172.614.189.875.004.066.01.142.009.214-.002.092-.048.097-.048.097-.189-.009-.515-.112-.693-.125-.203-.014-1.607-.085-2.137-.065-.53.02-.826.198-1.135.43a.946.946 0 0 1-.164.093.1.1 0 0 1-.065.007 3.972 3.972 0 0 1-.125-.03.879.879 0 0 0-.412-.015c-.127.033-.188.063-.32-.022-.19-.121-.469-.586-1.506-.637-.588-.028-1.359-.067-1.814-.066-.146.001-.224.015-.261.012a.323.323 0 0 1-.002-.046c.025-.83.558-.624.63-.838.175-.53.264-1.822 1.233-2.578.463-.361.697-.367 1.113-.35.448.018.88.152 1.099.272.174.095.26.157.331.108.072-.05.265-.212.345-.267.08-.056.054-.15-.017-.213-.067-.06-.698-.924-1.711-1.134-.232-.048-.403-.09-.615-.1a2.631 2.631 0 0 0-.484.008c-.392.032-.91.229-1.244.346-.017-.02.055-.127.077-.156m7.811 5.716c-.044.044-.08.015-.168.034-.068.013-.115.05-.177.041-.098-.013-.142-.132-.086-.208.086-.116.197-.007.289.013.045.01.078-.002.123.016.045.018.05.06.02.104m-1.414.361s-.18-.134-.236-.24c-.027-.052-.018-.095.06-.092.279.008.534.012.654.121.087.08.084.24.035.34-.056.115-.156.078-.214.067-.058-.01-.299-.196-.299-.196m.103.503c-.054.025-.25-.05-.303-.083-.108-.067-.184-.113-.327-.246-.095-.087-.272-.133-.441-.131-.13 0-.26.023-.36.042-.1.02-.103-.07-.073-.102.031-.032.174-.153.477-.22a.598.598 0 0 1 .172.004c.124.02.271.109.374.218.104.11.315.305.43.382.054.036.178.077.05.136m-4.375 1.917a.357.357 0 0 1 .024.195c-.011.049-.186.106-.32-.114a.52.52 0 0 1 .032-.577c.142-.16.343-.031.31.028a.586.586 0 0 0-.047.468m-1.886-2.462c.035-.026.05-.025.168-.084.084-.042.18-.095.277-.152.175-.105.504-.207.641-.2.1.005.271.055.36.16.092.109.113.233-.012.206-.124-.026-.255-.065-.497-.02-.27.05-.457.146-.589.2a.785.785 0 0 1-.314.06c-.043-.003-.162-.074-.034-.17m-.166-.247c-.131.076-.26.165-.358.223-.119.072-.279-.008-.225-.17.027-.078.148-.276.338-.304a3.192 3.192 0 0 1 .437-.036c.134 0 .144.109.051.16-.061.035-.156.077-.243.127m-2.027-2.76c.124-.297.338-.547.483-.724.134-.161.083-.383.026-.583-.035-.183-.143-.375-.16-.426-.01-.035-.01-.063.002-.087l.024-.015.247-.011c.706-.062 1.335-.284 1.526-.381a1.71 1.71 0 0 1 .295-.115c.119-.035.242-.07.363-.081.093-.011.202-.021.296-.028.14-.01.355.096.305.123-.12.066-.671.17-1.174.725-.309.339-.386.553-.491.71-.107.159-.19.194-.335.31a.896.896 0 0 0-.294.369c-.078.195-.374.877-.454 1.974-.009.128-.036.262-.159.303-.101.037-.184.099-.198.027-.054-.244-.18-.77-.23-1.102a6.207 6.207 0 0 0-.054-.313c-.056-.284-.076-.534-.018-.674m.38 5.227c-.195-.142-.177-.316-.222-.49-.093-.37-.191-.815-.277-1.192-.051-.229-.045-.76.261-.748.154.007.268.06.311.207.097.329-.108.264-.07.65.027.271.067.54.134 1.004.03.213.08.726-.102.595m.849-2.826c-.063.004-.114-.037-.182-.054-.078-.02-.127.002-.158-.043-.027-.046-.02-.088.025-.103.046-.015.079-.001.124-.008.094-.014.211-.116.29.005.05.079 0 .196-.1.203m.055 2.237c-.023-.12.037-.298.312-.106.044.031.174.097.32.145.088.03.147-.006.175-.07.03-.063.107-.189-.016-.255-.122-.068-.43-.134-.588-.576-.029-.08.029-.167.079-.187.051-.02.113-.007.168.05.055.056.174.18.284.19.102.009.12-.032.141-.055.09-.093.35-.442.855-.36.208.035.4.09.47.098.05.005.19.017.324-.003.153-.022.382-.06.265.064-.094.1-.171.141-.097.257l.012.018a.286.286 0 0 1-.013.334l-.01.012c-.118.142-.357.3-.838.312-.22.005-.232-.004-.242.121a.413.413 0 0 0 .002.108c.01.063.05.091.2.107.11.011.313-.003.313-.002.05-.013.107.02.074.06l-.03.04a.725.725 0 0 0-.168.341.201.201 0 0 1-.11.15h-.002c-.071.033-.357.083-.587.258-.23.175-.7.309-.89.074-.19-.234-.332-.745-.403-1.125m1.872 5.4c-.398-.003-1.41-.673-1.792-2.472-.099-.463.205-.823.387-.88a.971.971 0 0 1 .199-.048c.037-.003.218.005.203.21-.013.165.069 1.552.409 2.067.084.127.166.135.212.027.042-.1.11-.229.132-.278.016-.035.155-.23.188-.076.07.327.236 1 .31 1.175.124.291-.099.277-.248.276m.366-2.877c-.518-.027-.75-.23-.785-.29-.034-.057.028-.098.083-.114.124-.034.346-.135.437-.198.091-.063.342-.206.469-.28.059-.036.398-.168.588-.024.284.217.552.364 1.053.354.323-.007.326-.267.592-.34.24-.065.287-.121.363-.162.096-.015.168-.036.268.065.126.128.17.226.315.405.199.243.424.363.495.38.07.017.118.076.118.1 0 .023-.032.095-.245.147a3.112 3.112 0 0 1-1.847-.159c-.195-.087-.387-.117-.608-.018-.224.098-.812.16-1.296.134m2.603.54c-.121.038-.47.105-.637.108-.169.003-.704.017-.794.01a.65.65 0 0 1-.373-.187c-.023-.023-.047-.101.052-.1.183.005.497-.08 1.558.053l.195.025c.027.004.12.053-.001.09m4.72-3.942c-.17.741-.343 1.11-.462 1.567-.124.476-.358 1.169-.558 1.178-.204.053-.276-.184-.413-.016-.08.1-.146.233-.218.318a.553.553 0 0 0-.099.252c-.005.135-.03.57-.174 1.137-.216.855-.572 1.47-.931 1.852-.688.733-1.309.83-1.384.866-.096.046-.237.011-.283-.013-.046-.024-.08-.082-.159-.165-.08-.082-.114.037-.119.067-.004.028.027.39-.07.548-.212.342-.403.364-.526.796-.041.145-.026.368-.197.26-.419-.262-1.006-.95-1.107-1.6-.03-.197.014-.415.149-.783.077-.215.136-.457.142-.598.01-.248-.079-.463.02-.48.181-.033.244.437.33.392.148-.078.06-.576.06-.576s-.053-.142-.306-.212c-.145-.04-.187-.152-.027-.223.119-.053.257-.123.415-.093 1.05.193 1.363-.008 1.795-.105.085-.02.135-.027.2.007.063.033.235.136.267.228.033.09-.019.44.026.707.047.267.243.034.293-.07.051-.102.11-.356.122-.421.013-.065.078-.336.18-.413.2-.153.276-.362.31-.444.036-.081.097-.334.103-.708.006-.372-.06-.416-.146-.5-.086-.083-.193-.072-.411-.289-.194-.193-.349-.5-.487-.695-.14-.193-.374-.406-.648-.485-.274-.078-.17.182-.157.254.01.051.065.28-.03.351-.094.07-.667.424-1.16.274-.588-.18-.78-.519-.779-.84 0-.226.118-.44.264-.695.085-.148.127-.4.17-.642.032-.194.096-.473.142-.572.033-.07.108-.146.269-.13.159.015.26.099.284.238.084.482.247.61.303.651.055.04.166-.032.21-.058.043-.026.156-.131.124-.191a.74.74 0 0 1-.083-.203c-.016-.092.097-.076.12-.057.18.154.354.174.674.241.559.117.648-.088 1.032-.005.05.01.143.057.172.116.024.05.066.167.112.19.046.02.16.03.22.044.08.017.228.014.197.164-.08.403-.552.496-.772.525-.09.012-.132.018-.148.03-.048.04-.055.167-.004.251.036.06.213.07.456.034a.996.996 0 0 0 .706-.442c.215-.308.355-1 .384-1.13.028-.128.088-.344.162-.386.072-.041.406-.128.452-.118.055.012.094.04.115.168.02.13-.06.896-.065 1.012-.006.123.057.125.093.11.078-.032.289-.161.341-.317.04-.116-.052-.29.004-.451.087-.25.166-.314.219-.308.32.044.38.188.287.594" fill="#000"/>
    </g>
    <circle cx="8.5" cy="31.5" r="3" fill="#58ED24" stroke="#F6F7F9"/>
</svg>
