<svg width="84" height="41" viewBox="0 0 84 41" fill="none" xmlns="http://www.w3.org/2000/svg">
    <path d="M81.993 15.293 79.236 4.816a5.146 5.146 0 0 0-.886-1.814 5.145 5.145 0 0 0-1.512-1.338 5.122 5.122 0 0 0-1.906-.656 5.14 5.14 0 0 0-2.016.123L5.684 18.83c-.66.174-1.27.471-1.812.883a5.121 5.121 0 0 0-1.34 1.514 5.115 5.115 0 0 0-.657 1.907 5.128 5.128 0 0 0 .123 2.015l2.758 10.475a5.156 5.156 0 0 0 2.395 3.15 5.157 5.157 0 0 0 3.924.535l67.234-17.7a5.144 5.144 0 0 0 1.813-.884 5.152 5.152 0 0 0 1.994-3.42 5.151 5.151 0 0 0-.123-2.014zm-.271 1.96a4.76 4.76 0 0 1-3.515 3.973l-67.233 17.7a4.777 4.777 0 0 1-5.833-3.4L2.383 25.048a4.742 4.742 0 0 1-.113-1.86 4.736 4.736 0 0 1 .606-1.76 4.74 4.74 0 0 1 1.236-1.397c.5-.38 1.064-.655 1.673-.816L73.017 1.517a4.742 4.742 0 0 1 1.861-.113 4.732 4.732 0 0 1 1.76.606 4.755 4.755 0 0 1 2.212 2.908l2.758 10.476c.16.61.198 1.235.114 1.859z" fill="#BF0A0A"/>
    <path d="M81.223 15.495 78.465 5.02a4.338 4.338 0 0 0-.749-1.534c-.349-.459-.78-.84-1.278-1.13a4.331 4.331 0 0 0-1.614-.557 4.355 4.355 0 0 0-1.706.105L5.887 19.6a4.333 4.333 0 0 0-1.534.749c-.46.348-.841.778-1.133 1.279-.291.5-.479 1.044-.556 1.614a4.346 4.346 0 0 0 .105 1.705l2.757 10.475c.147.558.4 1.075.749 1.535.349.459.78.84 1.278 1.13a4.351 4.351 0 0 0 3.32.452l67.233-17.7a4.348 4.348 0 0 0 1.534-.749 4.356 4.356 0 0 0 1.687-2.893 4.343 4.343 0 0 0-.104-1.703zm-.685 1.597a3.563 3.563 0 0 1-1.38 2.366 3.563 3.563 0 0 1-1.255.613L10.67 37.77a3.543 3.543 0 0 1-1.394.086 3.557 3.557 0 0 1-1.32-.456 3.562 3.562 0 0 1-1.658-2.18L3.539 24.744a3.56 3.56 0 0 1-.085-1.393c.063-.468.216-.912.454-1.321.239-.409.55-.76.926-1.046a3.555 3.555 0 0 1 1.255-.613L73.321 2.673a3.553 3.553 0 0 1 1.394-.085 3.561 3.561 0 0 1 2.98 2.635l2.757 10.476c.12.456.15.925.085 1.393z" fill="#BF0A0A"/>
    <path d="m14.387 28.704 2.328-.613.062.195c.02.07.049.174.086.314.326 1.237.296 2.225-.088 2.966-.383.741-1.134 1.259-2.252 1.553-.658.173-1.25.212-1.777.116a2.795 2.795 0 0 1-1.399-.693c-.284-.263-.545-.663-.78-1.201s-.514-1.417-.834-2.635c-.321-1.22-.512-2.12-.572-2.705-.06-.584-.03-1.06.088-1.43.17-.513.458-.941.864-1.285.407-.344.932-.6 1.576-.77 1.11-.292 2.022-.203 2.74.267.716.47 1.236 1.319 1.559 2.546l.026.098-2.303.6c-.19-.686-.397-1.149-.619-1.388-.222-.239-.509-.312-.86-.22-.381.1-.597.339-.648.716-.051.376.115 1.293.498 2.748l.05.19c.413 1.566.735 2.507.969 2.822.233.317.54.424.921.324.355-.094.57-.287.646-.581.075-.294.02-.79-.163-1.487l-.118-.447zM18.568 31.794l-.456-10.709 2.814-.74 4.85 9.552-2.368.623-.806-1.862-1.861.49.214 2.018-2.387.628zm1.935-4.538 1.36-.359-1.84-4.24.48 4.598zM26.703 29.652l-2.666-10.127 2.466-.649 3.61 5.73a109.693 109.693 0 0 1-.89-2.677 41.962 41.962 0 0 1-.565-1.918l-.42-1.592 2.112-.556 2.666 10.128-2.473.65-3.674-5.916c.308.814.589 1.608.842 2.383.253.775.477 1.533.672 2.274l.45 1.71-2.13.56zM37.79 22.543l2.329-.613.062.194c.02.07.049.175.086.315.325 1.236.296 2.225-.088 2.966-.384.741-1.134 1.259-2.252 1.553-.658.173-1.25.212-1.777.116a2.798 2.798 0 0 1-1.4-.693c-.284-.263-.544-.663-.78-1.201-.235-.538-.513-1.417-.834-2.636-.32-1.218-.51-2.12-.57-2.704-.06-.584-.032-1.06.087-1.43.17-.513.458-.942.864-1.285.406-.344.932-.6 1.576-.77 1.11-.293 2.022-.204 2.74.266.716.47 1.236 1.32 1.559 2.547l.026.098-2.303.6c-.19-.686-.397-1.149-.619-1.388-.222-.24-.509-.313-.86-.22-.38.1-.597.339-.648.715-.05.377.115 1.293.498 2.749l.05.19c.413 1.566.735 2.506.968 2.822.234.316.541.424.923.324.355-.094.57-.288.645-.582.075-.294.02-.79-.163-1.486l-.118-.448zM42.703 25.44l-2.666-10.127 5.51-1.45.518 1.966-3.156.83.49 1.861 2.913-.767.535 2.032-2.913.767.581 2.21 3.157-.831.542 2.058-5.511 1.451zM54.895 22.23l-5.215 1.374-2.666-10.127 2.367-.624 2.128 8.083 2.847-.75.538 2.045zM61.155 20.583l-5.215 1.373-2.666-10.127 2.367-.624 2.128 8.082 2.847-.75.539 2.046zM62.2 20.307 59.536 10.18l5.51-1.45.518 1.966-3.156.83.49 1.862 2.913-.767.535 2.032-2.913.767.582 2.21 3.156-.832.542 2.059-5.51 1.45H62.2zM69.178 18.47 66.512 8.343l2.61-.687c.956-.252 1.686-.356 2.19-.313.503.044.943.23 1.32.556.292.256.547.62.764 1.09.218.47.504 1.38.86 2.73.355 1.35.554 2.283.595 2.797.042.514-.001.956-.128 1.327a2.26 2.26 0 0 1-.876 1.134c-.417.286-1.104.555-2.06.806l-2.61.687zm.211-8.866 1.683 6.392a.802.802 0 0 0 .141-.023l.204-.054c.254-.067.457-.158.607-.272a.944.944 0 0 0 .323-.444c.055-.146.053-.398-.007-.758-.059-.359-.224-1.052-.494-2.078l-.12-.46c-.222-.842-.388-1.406-.496-1.694-.109-.288-.22-.476-.331-.563a.848.848 0 0 0-.49-.216 1.937 1.937 0 0 0-.708.074c-.083.022-.147.04-.193.054a1.71 1.71 0 0 0-.119.042z" fill="#BF0A0A"/>
</svg>
