<svg width="23" height="23" viewBox="0 0 23 23" fill="none" xmlns="http://www.w3.org/2000/svg">
    <mask id="29iyn9iyra" style="mask-type:alpha" maskUnits="userSpaceOnUse" x="2" y="2" width="19" height="19">
        <path fill-rule="evenodd" clip-rule="evenodd" d="M2.31 2.31h18.384v18.382H2.309V2.31z" fill="#fff"/>
    </mask>
    <g mask="url(#29iyn9iyra)">
        <path fill-rule="evenodd" clip-rule="evenodd" d="M10.53 18.922a1.39 1.39 0 0 0 1.955-.018l.663-.662a2.781 2.781 0 0 1 1.951-.807h.947a1.39 1.39 0 0 0 1.39-1.388V15.1c0-.737.285-1.429.805-1.95l.662-.662a1.388 1.388 0 0 0 .002-1.974l-.663-.663a2.75 2.75 0 0 1-.806-1.953v-.944c0-.766-.623-1.39-1.39-1.39h-.945a2.75 2.75 0 0 1-1.95-.803l-.663-.664a1.395 1.395 0 0 0-1.973-.001l-.661.663a2.761 2.761 0 0 1-1.953.806h-.946c-.766 0-1.389.624-1.389 1.39v.942a2.75 2.75 0 0 1-.804 1.95l-.653.653c-.006.008-.012.013-.019.02a1.39 1.39 0 0 0 .007 1.964l.663.664c.52.522.806 1.214.806 1.95v.948a1.39 1.39 0 0 0 1.39 1.388h.943c.737.001 1.43.287 1.95.806l.663.661.018.02zm.97 1.77a2.76 2.76 0 0 1-1.972-.824l-.653-.651a1.383 1.383 0 0 0-.977-.403h-.943a2.77 2.77 0 0 1-2.768-2.768V15.1c0-.37-.144-.716-.403-.977l-.66-.66A2.772 2.772 0 0 1 3.09 9.57l.025-.024.669-.671c.258-.26.402-.609.402-.977v-.943a2.772 2.772 0 0 1 2.767-2.768h.947c.368 0 .716-.144.98-.404l.657-.66a2.77 2.77 0 0 1 3.914-.01l.672.672c.26.259.608.402.977.402h.945a2.771 2.771 0 0 1 2.768 2.768V7.9c0 .369.144.717.404.98l.66.66a2.75 2.75 0 0 1 .816 1.953 2.75 2.75 0 0 1-.804 1.96l-.674.673c-.258.26-.402.606-.402.976v.945a2.77 2.77 0 0 1-2.767 2.768h-.948c-.364 0-.72.147-.978.403l-.66.66c-.54.544-1.25.816-1.962.816z" fill="#F58828"/>
    </g>
    <path fill-rule="evenodd" clip-rule="evenodd" d="M9.138 14.553a.688.688 0 0 1-.487-1.177l4.725-4.725a.69.69 0 1 1 .975.976L9.625 14.35a.684.684 0 0 1-.487.202zM13.801 14.716a.922.922 0 0 1-.924-.919c0-.508.408-.919.916-.919h.008a.918.918 0 1 1 0 1.838zM9.205 10.12a.922.922 0 0 1-.923-.918c0-.509.407-.92.915-.92h.008a.918.918 0 1 1 0 1.839z" fill="#F58828"/>
</svg>
