  <svg
        id="wave"
        style="transform:rotate(180deg); transition: 0.3s"
        viewBox="0 0 1440 490"
        version="1.1"
        xmlns="http://www.w3.org/2000/svg"
      >
        <defs>
          <linearGradient id="sw-gradient-0" x1="0" x2="0" y1="1" y2="0">
            <stop stop-color="rgba(228, 0, 43, 1)" offset="0%"></stop>
            <stop stop-color="rgba(228, 0, 43, 1)" offset="100%"></stop>
          </linearGradient>
        </defs>
        <path
          style="transform:translate(0, 0px); opacity:1"
          fill="url(#sw-gradient-0)"
          d="M0,147L80,163.3C160,180,320,212,480,187.8C640,163,800,82,960,49C1120,16,1280,33,1440,81.7C1600,131,1760,212,1920,220.5C2080,229,2240,163,2400,187.8C2560,212,2720,327,2880,318.5C3040,310,3200,180,3360,163.3C3520,147,3680,245,3840,285.8C4000,327,4160,310,4320,326.7C4480,343,4640,392,4800,375.7C4960,359,5120,278,5280,253.2C5440,229,5600,261,5760,236.8C5920,212,6080,131,6240,130.7C6400,131,6560,212,6720,245C6880,278,7040,261,7200,228.7C7360,196,7520,147,7680,138.8C7840,131,8000,163,8160,171.5C8320,180,8480,163,8640,179.7C8800,196,8960,245,9120,285.8C9280,327,9440,359,9600,383.8C9760,408,9920,425,10080,359.3C10240,294,10400,147,10560,81.7C10720,16,10880,33,11040,98C11200,163,11360,278,11440,334.8L11520,392L11520,490L11440,490C11360,490,11200,490,11040,490C10880,490,10720,490,10560,490C10400,490,10240,490,10080,490C9920,490,9760,490,9600,490C9440,490,9280,490,9120,490C8960,490,8800,490,8640,490C8480,490,8320,490,8160,490C8000,490,7840,490,7680,490C7520,490,7360,490,7200,490C7040,490,6880,490,6720,490C6560,490,6400,490,6240,490C6080,490,5920,490,5760,490C5600,490,5440,490,5280,490C5120,490,4960,490,4800,490C4640,490,4480,490,4320,490C4160,490,4000,490,3840,490C3680,490,3520,490,3360,490C3200,490,3040,490,2880,490C2720,490,2560,490,2400,490C2240,490,2080,490,1920,490C1760,490,1600,490,1440,490C1280,490,1120,490,960,490C800,490,640,490,480,490C320,490,160,490,80,490L0,490Z"
        ></path>
      </svg>