<svg width="34" height="37" viewBox="0 0 34 37" fill="none" xmlns="http://www.w3.org/2000/svg">
    <path fill-rule="evenodd" clip-rule="evenodd" d="M.235 2.211A2 2 0 0 1 2.224 0h29.59a2 2 0 0 1 1.993 2.177L31.69 26.02a2 2 0 0 1-1.992 1.824H4.755a2 2 0 0 1-1.989-1.79L.235 2.212z" fill="#fff"/>
    <path fill-rule="evenodd" clip-rule="evenodd" d="M20.24 13.99a.152.152 0 0 1-.153-.173v-.021c.025-.383-.108-.605-.547-.605h-1.357l-.36 1.613h1.942c.098 0 .176.093.15.185l-.19.832a.152.152 0 0 1-.15.118h-2.01l-.233 1.034c-.072.32.15.483.297.554.009.005.017.009.022.009.064.03.098.096.085.164l-.102.454a.152.152 0 0 1-.151.117H15.12a.152.152 0 0 1-.15-.185L16 13.523c.104-.404-.136-.568-.309-.63-.004-.005-.012-.005-.017-.005a.158.158 0 0 1-.103-.185l.09-.403a.17.17 0 0 1 .168-.13h5.254c.098 0 .172.092.15.184l-.339 1.496a.152.152 0 0 1-.15.118h-.503M12.46 12.313a.167.167 0 0 1 .162-.13h2.528c.096 0 .173.091.152.184l-.085.386a.144.144 0 0 1-.135.118h-.017c-.19.025-.533.088-.816.306l-2.101 1.735 1.619 2.175c.313.399.47.475.782.479.102 0 .178.096.156.197l-.088.39a.154.154 0 0 1-.148.118H13.2c-1.394 0-1.78-.609-2.941-2.717l-.339 1.537c-.05.24.152.366.296.424.009.005.013.005.017.009.072.03.11.1.093.177l-.101.448a.154.154 0 0 1-.149.118H7.16a.16.16 0 0 1-.156-.193l.084-.387a.17.17 0 0 1 .143-.13h.01c.266-.03.55-.197.722-1.02l.664-3.011c.084-.4-.119-.554-.292-.622l-.03-.008a.165.165 0 0 1-.109-.193l.088-.403a.169.169 0 0 1 .165-.13h2.777c.098 0 .17.088.149.184l-.09.395a.16.16 0 0 1-.113.122c-.008.004-.013.004-.022.008a.566.566 0 0 0-.397.403l-.368 1.676 2.152-1.777c.13-.104.097-.247-.05-.302a.164.164 0 0 1-.115-.197l.089-.37zM26.87 12.219a.177.177 0 0 1 .125.21l-.323 1.466a.147.147 0 0 1-.147.117h-.462a.15.15 0 0 1-.15-.16v-.025c.02-.479-.282-.835-.962-.835-1.134 0-1.96.932-2.065 2.154-.114 1.264.772 1.995 1.99 1.995.625 0 1.12-.121 1.397-.21a.155.155 0 0 1 .198.177l-.143.756a.184.184 0 0 1-.122.138c-.252.08-.953.27-2.027.27-2.557 0-3.594-1.471-3.434-2.97.142-1.336 1.024-3.302 4.508-3.302.663-.004 1.196.1 1.616.219z" fill="#E4002B"/>
    <path fill-rule="evenodd" clip-rule="evenodd" d="M20.794 28.249h9.335l-8.097 8.097a.725.725 0 0 1-1.238-.513v-7.584z" fill="#fff"/>
    <path fill-rule="evenodd" clip-rule="evenodd" d="M30.629 27.778h-9.835v.909h8.879l.956-.909z" fill="#BCBCBC"/>
    <path fill="#F40E0E" d="M11.893 0h2.239v6.856h-2.239zM15.951 0h2.239v6.856h-2.239zM20.008 0h2.239v6.856h-2.239z"/>
</svg>
